<?xml version="1.0" encoding="UTF-8"?>
<svg id="Layer_2" data-name="Layer 2" xmlns="http://www.w3.org/2000/svg" viewBox="0 0 887.99 151.53">
  <defs>
    <style>
      .cls-1 {
        fill: #237;
      }

      .cls-1, .cls-2, .cls-3, .cls-4 {
        stroke-width: 0px;
      }

      .cls-2 {
        fill: #1268b3;
      }

      .cls-3 {
        fill: #a7a7a8;
      }

      .cls-4 {
        fill: #f73;
      }
    </style>
  </defs>
  <g id="Layer_1-2" data-name="Layer 1">
    <g>
      <g>
        <rect class="cls-3" x="395.97" y="68.91" width="78.08" height="33.77" rx="3" ry="3" transform="translate(520.81 -349.22) rotate(90)"/>
        <rect class="cls-1" x="300.31" y="3.69" width="151.65" height="31.32" rx="3" ry="3"/>
        <rect class="cls-2" x="266.63" y="80.45" width="101.16" height="33.77" rx="3" ry="3" transform="translate(414.55 -219.88) rotate(90)"/>
        <rect class="cls-4" x="331.71" y="74.27" width="88.8" height="33.77" rx="3" ry="3" transform="translate(467.27 -284.96) rotate(90)"/>
      </g>
      <path class="cls-1" d="m104.25,39.33c-1.22,1-2.98.86-4.08-.27-2.75-2.81-5.96-5.03-9.64-6.68-4.55-2.04-9.81-3.06-15.78-3.06s-11.51,1.16-16.6,3.46c-5.09,2.31-9.51,5.53-13.24,9.67-3.74,4.14-6.65,9.06-8.76,14.77-2.11,5.7-3.16,11.88-3.16,18.53s1.05,13,3.16,18.64c2.1,5.64,4.99,10.52,8.66,14.66,3.67,4.14,7.97,7.37,12.93,9.67,4.96,2.31,10.29,3.46,15.99,3.46,6.52,0,12.29-1.36,17.31-4.07,4.18-2.26,7.76-5.28,10.72-9.05,1-1.28,2.87-1.48,4.17-.51l21.59,16.11c1.35,1.01,1.61,2.95.57,4.27-5.8,7.31-12.92,12.81-21.36,16.48-9.37,4.07-19.01,6.11-28.92,6.11-11.27,0-21.66-1.77-31.16-5.3-9.51-3.53-17.72-8.59-24.64-15.17-6.92-6.58-12.32-14.56-16.19-23.93S0,87.31,0,75.76s1.93-22,5.8-31.36c3.87-9.37,9.27-17.34,16.19-23.93,6.92-6.58,15.14-11.64,24.64-15.17C56.14,1.77,66.53,0,77.8,0c4.07,0,8.32.38,12.73,1.12,4.41.75,8.76,1.93,13.04,3.56s8.38,3.8,12.32,6.52c3.11,2.15,5.97,4.68,8.58,7.59,1.14,1.27.96,3.24-.35,4.32l-19.86,16.22Z"/>
      <path class="cls-1" d="m196.68,3.67h22.34c1.19,0,2.27.71,2.75,1.8l60.12,138.2c.86,1.98-.59,4.2-2.75,4.2h-29.25c-1.22,0-2.32-.74-2.78-1.87l-10.9-26.81c-.46-1.13-1.56-1.87-2.78-1.87h-51.95c-1.23,0-2.34.75-2.79,1.9l-10.52,26.75c-.45,1.15-1.56,1.9-2.79,1.9h-28.42c-2.16,0-3.61-2.21-2.75-4.19L193.93,5.48c.47-1.1,1.56-1.81,2.75-1.81Zm7.47,49.06l-13.14,33.61c-.77,1.97.68,4.09,2.79,4.09h26.43c2.12,0,3.57-2.13,2.79-4.1l-13.29-33.61c-1-2.53-4.59-2.53-5.58.01Z"/>
      <path class="cls-1" d="m474.43,6.67c0-1.66,1.34-3,3-3h50.77c6.24,0,12.53.44,18.84,1.32,6.31.88,11.98,2.65,17.01,5.3,5.02,2.65,9.09,6.35,12.22,11.1,3.12,4.75,4.68,11.07,4.68,18.94s-2.28,14.9-6.82,20.27c-4.55,5.37-10.56,9.2-18.02,11.51v.41c4.75.68,9.06,2,12.93,3.97,3.87,1.97,7.19,4.48,9.98,7.54,2.78,3.05,4.92,6.62,6.42,10.69,1.49,4.07,2.24,8.42,2.24,13.03,0,7.61-1.63,13.95-4.89,19.04-3.26,5.09-7.47,9.2-12.63,12.32-5.16,3.13-10.97,5.37-17.41,6.72-6.45,1.36-12.87,2.04-19.25,2.04h-56.06c-1.66,0-3-1.34-3-3V6.67Zm31.77,51.64c0,1.66,1.34,3,3,3h20.01c2.44,0,4.85-.27,7.23-.81,2.37-.54,4.51-1.43,6.42-2.65,1.9-1.22,3.43-2.85,4.58-4.89,1.15-2.04,1.73-4.48,1.73-7.33s-.65-5.46-1.93-7.43c-1.29-1.97-2.95-3.49-4.99-4.58-2.04-1.08-4.35-1.86-6.92-2.34-2.58-.47-5.09-.71-7.54-.71h-18.59c-1.66,0-3,1.34-3,3v24.75Zm0,59.67c0,1.66,1.34,3,3,3h25.51c2.44,0,4.92-.27,7.43-.81,2.51-.54,4.79-1.49,6.82-2.85,2.04-1.36,3.7-3.12,4.99-5.3,1.29-2.17,1.93-4.82,1.93-7.94,0-3.39-.85-6.14-2.55-8.25-1.7-2.1-3.84-3.7-6.42-4.79-2.58-1.08-5.37-1.83-8.35-2.24-2.99-.41-5.77-.61-8.35-.61h-21.03c-1.66,0-3,1.34-3,3v26.79Z"/>
      <path class="cls-1" d="m652.83,3.67h22.34c1.19,0,2.27.71,2.75,1.8l60.12,138.2c.86,1.98-.59,4.2-2.75,4.2h-29.25c-1.22,0-2.32-.74-2.78-1.87l-10.9-26.81c-.46-1.13-1.56-1.87-2.78-1.87h-51.95c-1.23,0-2.34.75-2.79,1.9l-10.52,26.75c-.45,1.15-1.56,1.9-2.79,1.9h-28.42c-2.16,0-3.61-2.21-2.75-4.19L650.08,5.48c.47-1.1,1.56-1.81,2.75-1.81Zm7.47,49.06l-13.14,33.61c-.77,1.97.68,4.09,2.79,4.09h26.43c2.12,0,3.57-2.13,2.79-4.1l-13.29-33.61c-1-2.53-4.59-2.53-5.58.01Z"/>
      <path class="cls-1" d="m754.33,3.67h38.5c1.04,0,2.01.54,2.56,1.43l60.43,98.77h.41V6.67c0-1.66,1.34-3,3-3h25.77c1.66,0,3,1.34,3,3v138.2c0,1.66-1.34,3-3,3h-36.87c-1.04,0-2.01-.54-2.56-1.43l-62.06-101.22h-.41v99.65c0,1.66-1.34,3-3,3h-25.77c-1.66,0-3-1.34-3-3V6.67c0-1.66,1.34-3,3-3Z"/>
    </g>
  </g>
</svg>